<svg width="96" height="106" viewBox="0 0 96 106" fill="none" xmlns="http://www.w3.org/2000/svg">
<path d="M84 79.2412V83.6256C84 88.4486 80.4 92.3946 76 92.3946H20C15.56 92.3946 12 88.4486 12 83.6256V22.2428C12 17.4199 15.56 13.4739 20 13.4739H76C80.4 13.4739 84 17.4199 84 22.2428V26.6273H48C43.56 26.6273 40 30.5734 40 35.3963V70.4722C40 75.2951 43.56 79.2412 48 79.2412H84ZM48 70.4722H88V35.3963H48V70.4722ZM64 59.511C60.68 59.511 58 56.5734 58 52.9342C58 49.2951 60.68 46.3575 64 46.3575C67.32 46.3575 70 49.2951 70 52.9342C70 56.5734 67.32 59.511 64 59.511Z" fill="#776885"/>
</svg>
