<svg width="96" height="106" viewBox="0 0 96 106" fill="none" xmlns="http://www.w3.org/2000/svg">
<path d="M71.9999 57.3188V88.0102H15.9999V26.6274H36.0799C36.2799 23.5144 36.9599 20.5768 37.9999 17.8584H15.9999C11.5999 17.8584 7.99994 21.8044 7.99994 26.6274V88.0102C7.99994 92.8331 11.5999 96.7791 15.9999 96.7791H71.9999C76.3999 96.7791 79.9999 92.8331 79.9999 88.0102V66.0877L71.9999 57.3188ZM65.9999 79.2412H21.9999L32.9999 63.764L40.8399 74.1113L51.8399 58.5903L65.9999 79.2412ZM77.1999 39.2985C78.9599 36.2294 79.9999 32.6779 79.9999 28.8196C79.9999 17.9022 71.9599 9.08942 61.9999 9.08942C52.0399 9.08942 43.9999 17.9022 43.9999 28.8196C43.9999 39.737 52.0399 48.5498 61.9599 48.5498C65.4799 48.5498 68.7599 47.4098 71.5199 45.4806L83.9999 59.1602L89.6799 52.9343L77.1999 39.2985ZM61.9999 39.7808C56.4799 39.7808 51.9999 34.8702 51.9999 28.8196C51.9999 22.769 56.4799 17.8584 61.9999 17.8584C67.5199 17.8584 71.9999 22.769 71.9999 28.8196C71.9999 34.8702 67.5199 39.7808 61.9999 39.7808Z" fill="#776885"/>
</svg>
