<svg width="96" height="106" viewBox="0 0 96 106" fill="none" xmlns="http://www.w3.org/2000/svg">
<path d="M76.56 57.0382C76.704 55.7229 76.8 54.3549 76.8 52.9343C76.8 51.5138 76.704 50.1458 76.512 48.8304L84.624 41.8854C85.344 41.2541 85.536 40.0965 85.104 39.2021L77.424 24.6281C76.944 23.681 75.936 23.3654 75.072 23.681L65.52 27.8901C63.504 26.2065 61.392 24.8385 59.04 23.7863L57.6 12.6321C57.456 11.5799 56.64 10.8433 55.68 10.8433H40.32C39.36 10.8433 38.592 11.5799 38.448 12.6321L37.008 23.7863C34.656 24.8385 32.496 26.2591 30.528 27.8901L20.976 23.681C20.112 23.3127 19.104 23.681 18.624 24.6281L10.944 39.2021C10.464 40.1492 10.656 41.2541 11.424 41.8854L19.536 48.8304C19.344 50.1458 19.2 51.5664 19.2 52.9343C19.2 54.3023 19.296 55.7229 19.488 57.0382L11.376 63.9832C10.656 64.6146 10.464 65.7721 10.896 66.6665L18.576 81.2406C19.056 82.1876 20.064 82.5033 20.928 82.1876L30.48 77.9785C32.496 79.6622 34.608 81.0301 36.96 82.0824L38.4 93.2365C38.592 94.2888 39.36 95.0254 40.32 95.0254H55.68C56.64 95.0254 57.456 94.2888 57.552 93.2365L58.992 82.0824C61.344 81.0301 63.504 79.6095 65.472 77.9785L75.024 82.1876C75.888 82.5559 76.896 82.1876 77.376 81.2406L85.056 66.6665C85.536 65.7195 85.344 64.6146 84.576 63.9832L76.56 57.0382ZM48 68.7185C40.08 68.7185 33.6 61.6156 33.6 52.9343C33.6 44.253 40.08 37.1502 48 37.1502C55.92 37.1502 62.4 44.253 62.4 52.9343C62.4 61.6156 55.92 68.7185 48 68.7185Z" fill="#776885"/>
</svg>
