<svg xmlns="http://www.w3.org/2000/svg" width="1440" height="960" fill="none" viewBox="0 0 1440 960">
  <path stroke="#fff" stroke-opacity=".36" stroke-width="3.4" d="M1434.02 123.487h-93.23v106.222h93.23V123.487z"/>
  <path stroke="#fff" stroke-opacity=".36" stroke-width="3.4" d="M1420.7 138.661h-66.59v75.873h66.59v-75.873z"/>
  <path stroke="#fff" stroke-opacity=".36" stroke-width="3.4" d="M1407.38 153.836h-39.95v45.524h39.95v-45.524z"/>
  <path stroke="#fff" stroke-opacity=".36" stroke-width="3.4" d="M1394.07 169.011h-13.32v15.174h13.32v-15.174zM691.62 730.921h-93.229v106.223h93.229V730.921z"/>
  <path stroke="#fff" stroke-opacity=".36" stroke-width="3.4" d="M678.301 746.096h-66.592v75.873h66.592v-75.873z"/>
  <path stroke="#fff" stroke-opacity=".36" stroke-width="3.4" d="M664.983 761.271h-39.955v45.524h39.955v-45.524z"/>
  <path stroke="#fff" stroke-opacity=".36" stroke-width="3.4" d="M651.665 776.445h-13.319v15.175h13.319v-15.175zM691.62 123.487h-93.229v106.222h93.229V123.487z"/>
  <path stroke="#fff" stroke-opacity=".36" stroke-width="3.4" d="M678.301 138.662h-66.592v75.872h66.592v-75.872z"/>
  <path stroke="#fff" stroke-opacity=".36" stroke-width="3.4" d="M664.983 153.836h-39.955v45.524h39.955v-45.524z"/>
  <path stroke="#fff" stroke-opacity=".36" stroke-width="3.4" d="M651.665 169.011h-13.319v15.174h13.319v-15.174zM1440 730.921h-93.23v106.223H1440V730.921z"/>
  <path stroke="#fff" stroke-opacity=".36" stroke-width="3.4" d="M1426.68 746.096h-66.59v75.873h66.59v-75.873z"/>
  <path stroke="#fff" stroke-opacity=".36" stroke-width="3.4" d="M1413.36 761.271h-39.95v45.524h39.95v-45.524z"/>
  <path stroke="#fff" stroke-opacity=".36" stroke-width="3.4" d="M1400.04 776.445h-13.31v15.175h13.31v-15.175zM997.944 745.555h-173.14v197.27h173.14v-197.27z"/>
  <path stroke="#fff" stroke-opacity=".36" stroke-width="3.4" d="M984.626 760.73H838.123v166.921h146.503V760.73z"/>
  <path stroke="#fff" stroke-opacity=".36" stroke-width="3.4" d="M971.307 775.905H851.441v136.571h119.866V775.905z"/>
  <path stroke="#fff" stroke-opacity=".36" stroke-width="3.4" d="M957.989 791.079H864.76v106.223h93.229V791.079z"/>
  <path stroke="#fff" stroke-opacity=".36" stroke-width="3.4" d="M944.67 806.254h-66.592v75.873h66.592v-75.873z"/>
  <path stroke="#fff" stroke-opacity=".36" stroke-width="3.4" d="M931.352 821.429h-39.955v45.524h39.955v-45.524z"/>
  <path stroke="#fff" stroke-opacity=".36" stroke-width="3.4" d="M918.033 836.603h-13.318v15.175h13.318v-15.175zM1317.59 138.572h-66.6v75.873h66.6v-75.873z"/>
  <path stroke="#fff" stroke-opacity=".36" stroke-width="3.4" d="M1304.27 153.746h-39.96v45.524h39.96v-45.524z"/>
  <path stroke="#fff" stroke-opacity=".36" stroke-width="3.4" d="M1290.95 168.921h-13.32v15.174h13.32v-15.174zM784.849 745.555h-66.592v75.874h66.592v-75.874z"/>
  <path stroke="#fff" stroke-opacity=".36" stroke-width="3.4" d="M771.531 760.73h-39.956v45.524h39.956V760.73z"/>
  <path stroke="#fff" stroke-opacity=".36" stroke-width="3.4" d="M758.212 775.905h-13.318v15.175h13.318v-15.175zM1317.59 745.555h-66.6v75.874h66.6v-75.874z"/>
  <path stroke="#fff" stroke-opacity=".36" stroke-width="3.4" d="M1304.27 760.73h-39.96v45.524h39.96V760.73z"/>
  <path stroke="#fff" stroke-opacity=".36" stroke-width="3.4" d="M1290.95 775.905h-13.32v15.175h13.32v-15.175zM1424.13 502.762h-173.14v197.27h173.14v-197.27z"/>
  <path stroke="#fff" stroke-opacity=".36" stroke-width="3.4" d="M1410.82 517.936h-146.51v166.921h146.51V517.936z"/>
  <path stroke="#fff" stroke-opacity=".36" stroke-width="3.4" d="M1397.5 533.111h-119.87v136.572h119.87V533.111z"/>
  <path stroke="#fff" stroke-opacity=".36" stroke-width="3.4" d="M1384.18 548.286h-93.23v106.222h93.23V548.286z"/>
  <path stroke="#fff" stroke-opacity=".36" stroke-width="3.4" d="M1370.86 563.461h-66.59v75.873h66.59v-75.873z"/>
  <path stroke="#fff" stroke-opacity=".36" stroke-width="3.4" d="M1357.54 578.635h-39.95v45.524h39.95v-45.524z"/>
  <path stroke="#fff" stroke-opacity=".36" stroke-width="3.4" d="M1344.22 593.81h-13.31v15.174h13.31V593.81zM798.167 244.794H598.391v227.618h199.776V244.794z"/>
  <path stroke="#fff" stroke-opacity=".36" stroke-width="3.4" d="M784.849 259.968h-173.14v197.27h173.14v-197.27z"/>
  <path stroke="#fff" stroke-opacity=".36" stroke-width="3.4" d="M771.531 275.143H625.028v166.92h146.503v-166.92z"/>
  <path stroke="#fff" stroke-opacity=".36" stroke-width="3.4" d="M758.212 290.317H638.346v136.572h119.866V290.317z"/>
  <path stroke="#fff" stroke-opacity=".36" stroke-width="3.4" d="M744.894 305.492h-93.23v106.222h93.23V305.492z"/>
  <path stroke="#fff" stroke-opacity=".36" stroke-width="3.4" d="M731.575 320.666h-66.592v75.874h66.592v-75.874z"/>
  <path stroke="#fff" stroke-opacity=".36" stroke-width="3.4" d="M718.257 335.841h-39.956v45.524h39.956v-45.524z"/>
  <path stroke="#fff" stroke-opacity=".36" stroke-width="3.4" d="M704.938 351.016H691.62v15.174h13.318v-15.174zM798.167 123.397h-93.229v106.222h93.229V123.397z"/>
  <path stroke="#fff" stroke-opacity=".36" stroke-width="3.4" d="M784.849 138.572h-66.592v75.872h66.592v-75.872z"/>
  <path stroke="#fff" stroke-opacity=".36" stroke-width="3.4" d="M771.531 153.746h-39.956v45.524h39.956v-45.524z"/>
  <path stroke="#fff" stroke-opacity=".36" stroke-width="3.4" d="M758.212 168.921h-13.318v15.174h13.318v-15.174zM1011.26 123.397H811.486v227.619h199.774V123.397z"/>
  <path stroke="#fff" stroke-opacity=".36" stroke-width="3.4" d="M997.944 138.572h-173.14v197.269h173.14V138.572z"/>
  <path stroke="#fff" stroke-opacity=".36" stroke-width="3.4" d="M984.626 153.746H838.123v166.921h146.503V153.746z"/>
  <path stroke="#fff" stroke-opacity=".36" stroke-width="3.4" d="M971.307 168.921H851.441v136.571h119.866V168.921z"/>
  <path stroke="#fff" stroke-opacity=".36" stroke-width="3.4" d="M957.989 184.095H864.76v106.222h93.229V184.095z"/>
  <path stroke="#fff" stroke-opacity=".36" stroke-width="3.4" d="M944.67 199.27h-66.592v75.873h66.592V199.27z"/>
  <path stroke="#fff" stroke-opacity=".36" stroke-width="3.4" d="M931.352 214.445h-39.955v45.523h39.955v-45.523z"/>
  <path stroke="#fff" stroke-opacity=".36" stroke-width="3.4" d="M918.034 229.619h-13.319v15.175h13.319v-15.175zM904.715 366.19h-93.229v106.223h93.229V366.19z"/>
  <path stroke="#fff" stroke-opacity=".36" stroke-width="3.4" d="M891.397 381.365h-66.593v75.873h66.593v-75.873z"/>
  <path stroke="#fff" stroke-opacity=".36" stroke-width="3.4" d="M878.078 396.54h-39.955v45.524h39.955V396.54z"/>
  <path stroke="#fff" stroke-opacity=".36" stroke-width="3.4" d="M864.76 411.714h-13.319v15.175h13.319v-15.175zM1224.36 2h-199.78v227.619h199.78V2z"/>
  <path stroke="#fff" stroke-opacity=".36" stroke-width="3.4" d="M1211.04 17.174H1037.9v197.27h173.14V17.174z"/>
  <path stroke="#fff" stroke-opacity=".36" stroke-width="3.4" d="M1197.72 32.35h-146.5v166.92h146.5V32.35z"/>
  <path stroke="#fff" stroke-opacity=".36" stroke-width="3.4" d="M1184.4 47.524h-119.86v136.571h119.86V47.524z"/>
  <path stroke="#fff" stroke-opacity=".36" stroke-width="3.4" d="M1171.08 62.699h-93.23V168.92h93.23V62.699z"/>
  <path stroke="#fff" stroke-opacity=".36" stroke-width="3.4" d="M1157.77 77.873h-66.6v75.873h66.6V77.873z"/>
  <path stroke="#fff" stroke-opacity=".36" stroke-width="3.4" d="M1144.45 93.047h-39.96v45.524h39.96V93.047z"/>
  <path stroke="#fff" stroke-opacity=".36" stroke-width="3.4" d="M1131.13 108.222h-13.32v15.175h13.32v-15.175zM1117.81 244.794h-93.23v106.222h93.23V244.794z"/>
  <path stroke="#fff" stroke-opacity=".36" stroke-width="3.4" d="M1104.49 259.968h-66.59v75.873h66.59v-75.873z"/>
  <path stroke="#fff" stroke-opacity=".36" stroke-width="3.4" d="M1091.17 275.143h-39.95v45.524h39.95v-45.524z"/>
  <path stroke="#fff" stroke-opacity=".36" stroke-width="3.4" d="M1077.86 290.317h-13.32v15.175h13.32v-15.175zM904.715 487.587H704.938v227.619h199.777V487.587z"/>
  <path stroke="#fff" stroke-opacity=".36" stroke-width="3.4" d="M891.397 502.762h-173.14v197.269h173.14V502.762z"/>
  <path stroke="#fff" stroke-opacity=".36" stroke-width="3.4" d="M878.078 517.936H731.575v166.921h146.503V517.936z"/>
  <path stroke="#fff" stroke-opacity=".36" stroke-width="3.4" d="M864.76 533.111H744.894v136.571H864.76V533.111z"/>
  <path stroke="#fff" stroke-opacity=".36" stroke-width="3.4" d="M851.441 548.286h-93.229v106.222h93.229V548.286z"/>
  <path stroke="#fff" stroke-opacity=".36" stroke-width="3.4" d="M838.123 563.46h-66.592v75.874h66.592V563.46z"/>
  <path stroke="#fff" stroke-opacity=".36" stroke-width="3.4" d="M824.804 578.635h-39.955v45.524h39.955v-45.524z"/>
  <path stroke="#fff" stroke-opacity=".36" stroke-width="3.4" d="M811.486 593.809h-13.319v15.175h13.319v-15.175zM1437.45 487.587h-199.77v227.619h199.77V487.587zM1011.26 730.381H811.486V958h199.774V730.381zM1117.81 366.19H918.034v227.619h199.776V366.19z"/>
  <path stroke="#fff" stroke-opacity=".36" stroke-width="3.4" d="M1104.49 381.365H931.352v197.27h173.138v-197.27z"/>
  <path stroke="#fff" stroke-opacity=".36" stroke-width="3.4" d="M1091.17 396.54H944.671v166.92h146.499V396.54z"/>
  <path stroke="#fff" stroke-opacity=".36" stroke-width="3.4" d="M1077.85 411.714H957.989v136.572h119.861V411.714z"/>
  <path stroke="#fff" stroke-opacity=".36" stroke-width="3.4" d="M1064.54 426.889h-93.233v106.222h93.233V426.889z"/>
  <path stroke="#fff" stroke-opacity=".36" stroke-width="3.4" d="M1051.22 442.064h-66.594v75.872h66.594v-75.872z"/>
  <path stroke="#fff" stroke-opacity=".36" stroke-width="3.4" d="M1037.9 457.238h-39.956v45.524h39.956v-45.524z"/>
  <path stroke="#fff" stroke-opacity=".36" stroke-width="3.4" d="M1024.58 472.413h-13.32v15.174h13.32v-15.174zM1011.26 608.984h-93.226v106.222h93.226V608.984z"/>
  <path stroke="#fff" stroke-opacity=".36" stroke-width="3.4" d="M997.944 624.158h-66.592v75.873h66.592v-75.873z"/>
  <path stroke="#fff" stroke-opacity=".36" stroke-width="3.4" d="M984.626 639.333h-39.955v45.524h39.955v-45.524z"/>
  <path stroke="#fff" stroke-opacity=".36" stroke-width="3.4" d="M971.307 654.508h-13.318v15.175h13.318v-15.175zM1224.36 608.984h-199.78v227.619h199.78V608.984z"/>
  <path stroke="#fff" stroke-opacity=".36" stroke-width="3.4" d="M1211.04 624.158H1037.9v197.27h173.14v-197.27z"/>
  <path stroke="#fff" stroke-opacity=".36" stroke-width="3.4" d="M1197.72 639.333h-146.5v166.921h146.5V639.333z"/>
  <path stroke="#fff" stroke-opacity=".36" stroke-width="3.4" d="M1184.4 654.508h-119.86v136.571h119.86V654.508z"/>
  <path stroke="#fff" stroke-opacity=".36" stroke-width="3.4" d="M1171.08 669.683h-93.23v106.222h93.23V669.683z"/>
  <path stroke="#fff" stroke-opacity=".36" stroke-width="3.4" d="M1157.77 684.857h-66.6v75.873h66.6v-75.873z"/>
  <path stroke="#fff" stroke-opacity=".36" stroke-width="3.4" d="M1144.45 700.032h-39.96v45.524h39.96v-45.524z"/>
  <path stroke="#fff" stroke-opacity=".36" stroke-width="3.4" d="M1131.13 715.206h-13.32v15.175h13.32v-15.175zM1330.91 244.794h-199.78v227.618h199.78V244.794z"/>
  <path stroke="#fff" stroke-opacity=".36" stroke-width="3.4" d="M1317.59 259.968h-173.14v197.27h173.14v-197.27z"/>
  <path stroke="#fff" stroke-opacity=".36" stroke-width="3.4" d="M1304.27 275.143h-146.5v166.92h146.5v-166.92z"/>
  <path stroke="#fff" stroke-opacity=".36" stroke-width="3.4" d="M1290.95 290.317h-119.87v136.572h119.87V290.317z"/>
  <path stroke="#fff" stroke-opacity=".36" stroke-width="3.4" d="M1277.63 305.492h-93.23v106.222h93.23V305.492z"/>
  <path stroke="#fff" stroke-opacity=".36" stroke-width="3.4" d="M1264.31 320.666h-66.59v75.874h66.59v-75.874z"/>
  <path stroke="#fff" stroke-opacity=".36" stroke-width="3.4" d="M1250.99 335.841h-39.95v45.524h39.95v-45.524z"/>
  <path stroke="#fff" stroke-opacity=".36" stroke-width="3.4" d="M1237.68 351.016h-13.32v15.174h13.32v-15.174zM1224.36 487.587h-93.23v106.222h93.23V487.587z"/>
  <path stroke="#fff" stroke-opacity=".36" stroke-width="3.4" d="M1211.04 502.762h-66.59v75.873h66.59v-75.873z"/>
  <path stroke="#fff" stroke-opacity=".36" stroke-width="3.4" d="M1197.72 517.936h-39.95v45.524h39.95v-45.524z"/>
  <path stroke="#fff" stroke-opacity=".36" stroke-width="3.4" d="M1184.4 533.111h-13.32v15.175h13.32v-15.175zM1330.91 730.381h-93.23v106.222h93.23V730.381zM1330.91 123.397h-93.23v106.222h93.23V123.397zM798.167 730.381h-93.229v106.222h93.229V730.381zM252.554 745.555H79.414v197.27h173.14v-197.27z"/>
  <path stroke="#fff" stroke-opacity=".36" stroke-width="3.4" d="M239.235 760.73H92.732v166.921h146.503V760.73z"/>
  <path stroke="#fff" stroke-opacity=".36" stroke-width="3.4" d="M225.917 775.905H106.051v136.571h119.866V775.905z"/>
  <path stroke="#fff" stroke-opacity=".36" stroke-width="3.4" d="M212.598 791.079h-93.229v106.223h93.229V791.079z"/>
  <path stroke="#fff" stroke-opacity=".36" stroke-width="3.4" d="M199.28 806.254h-66.592v75.873h66.592v-75.873z"/>
  <path stroke="#fff" stroke-opacity=".36" stroke-width="3.4" d="M185.961 821.429h-39.955v45.524h39.955v-45.524z"/>
  <path stroke="#fff" stroke-opacity=".36" stroke-width="3.4" d="M172.643 836.603h-13.319v15.175h13.319v-15.175zM572.197 138.572h-66.593v75.873h66.593v-75.873z"/>
  <path stroke="#fff" stroke-opacity=".36" stroke-width="3.4" d="M558.878 153.746h-39.955v45.524h39.955v-45.524z"/>
  <path stroke="#fff" stroke-opacity=".36" stroke-width="3.4" d="M545.56 168.921h-13.319v15.174h13.319v-15.174zM39.459 745.555h-66.593v75.874H39.46v-75.874z"/>
  <path stroke="#fff" stroke-opacity=".36" stroke-width="3.4" d="M26.14 760.73h-39.955v45.524H26.14V760.73z"/>
  <path stroke="#fff" stroke-opacity=".36" stroke-width="3.4" d="M12.822 775.905H-.498v15.175h13.319v-15.175zM572.197 745.555h-66.593v75.874h66.593v-75.874z"/>
  <path stroke="#fff" stroke-opacity=".36" stroke-width="3.4" d="M558.878 760.73h-39.955v45.524h39.955V760.73z"/>
  <path stroke="#fff" stroke-opacity=".36" stroke-width="3.4" d="M545.56 775.905h-13.319v15.175h13.319v-15.175zM678.744 502.762h-173.14v197.27h173.14v-197.27z"/>
  <path stroke="#fff" stroke-opacity=".36" stroke-width="3.4" d="M665.426 517.936H518.923v166.921h146.503V517.936z"/>
  <path stroke="#fff" stroke-opacity=".36" stroke-width="3.4" d="M652.107 533.111H532.241v136.572h119.866V533.111z"/>
  <path stroke="#fff" stroke-opacity=".36" stroke-width="3.4" d="M638.789 548.286H545.56v106.222h93.229V548.286z"/>
  <path stroke="#fff" stroke-opacity=".36" stroke-width="3.4" d="M625.47 563.461h-66.592v75.873h66.592v-75.873z"/>
  <path stroke="#fff" stroke-opacity=".36" stroke-width="3.4" d="M612.152 578.635h-39.955v45.524h39.955v-45.524z"/>
  <path stroke="#fff" stroke-opacity=".36" stroke-width="3.4" d="M598.834 593.81h-13.319v15.174h13.319V593.81zM52.777 244.794H-147v227.618H52.777V244.794z"/>
  <path stroke="#fff" stroke-opacity=".36" stroke-width="3.4" d="M39.458 259.968h-173.14v197.27h173.14v-197.27z"/>
  <path stroke="#fff" stroke-opacity=".36" stroke-width="3.4" d="M26.14 275.143h-146.503v166.92H26.14v-166.92z"/>
  <path stroke="#fff" stroke-opacity=".36" stroke-width="3.4" d="M12.821 290.317h-119.866v136.572H12.821V290.317z"/>
  <path stroke="#fff" stroke-opacity=".36" stroke-width="3.4" d="M-.497 305.492h-93.23v106.222h93.23V305.492z"/>
  <path stroke="#fff" stroke-opacity=".36" stroke-width="3.4" d="M-13.815 320.666h-66.593v75.874h66.593v-75.874z"/>
  <path stroke="#fff" stroke-opacity=".36" stroke-width="3.4" d="M-27.134 335.841h-39.955v45.524h39.955v-45.524z"/>
  <path stroke="#fff" stroke-opacity=".36" stroke-width="3.4" d="M-40.452 351.016h-13.319v15.174h13.319v-15.174zM52.777 123.397h-93.23v106.222h93.23V123.397z"/>
  <path stroke="#fff" stroke-opacity=".36" stroke-width="3.4" d="M39.459 138.572h-66.593v75.872H39.46v-75.872z"/>
  <path stroke="#fff" stroke-opacity=".36" stroke-width="3.4" d="M26.14 153.746h-39.955v45.524H26.14v-45.524z"/>
  <path stroke="#fff" stroke-opacity=".36" stroke-width="3.4" d="M12.822 168.921H-.498v15.174h13.319v-15.174zM265.872 123.397H66.095v227.619h199.777V123.397z"/>
  <path stroke="#fff" stroke-opacity=".36" stroke-width="3.4" d="M252.554 138.572H79.414v197.269h173.14V138.572z"/>
  <path stroke="#fff" stroke-opacity=".36" stroke-width="3.4" d="M239.235 153.746H92.732v166.921h146.503V153.746z"/>
  <path stroke="#fff" stroke-opacity=".36" stroke-width="3.4" d="M225.917 168.921H106.051v136.571h119.866V168.921z"/>
  <path stroke="#fff" stroke-opacity=".36" stroke-width="3.4" d="M212.598 184.095h-93.229v106.222h93.229V184.095z"/>
  <path stroke="#fff" stroke-opacity=".36" stroke-width="3.4" d="M199.28 199.27h-66.592v75.873h66.592V199.27z"/>
  <path stroke="#fff" stroke-opacity=".36" stroke-width="3.4" d="M185.961 214.445h-39.955v45.523h39.955v-45.523z"/>
  <path stroke="#fff" stroke-opacity=".36" stroke-width="3.4" d="M172.643 229.619h-13.319v15.175h13.319v-15.175zM159.325 366.19h-93.23v106.223h93.23V366.19z"/>
  <path stroke="#fff" stroke-opacity=".36" stroke-width="3.4" d="M146.006 381.365H79.414v75.873h66.592v-75.873z"/>
  <path stroke="#fff" stroke-opacity=".36" stroke-width="3.4" d="M132.688 396.54H92.732v45.524h39.956V396.54z"/>
  <path stroke="#fff" stroke-opacity=".36" stroke-width="3.4" d="M119.369 411.714h-13.318v15.175h13.318v-15.175zM478.968 2H279.191v227.619h199.777V2z"/>
  <path stroke="#fff" stroke-opacity=".36" stroke-width="3.4" d="M465.649 17.174h-173.14v197.27h173.14V17.174z"/>
  <path stroke="#fff" stroke-opacity=".36" stroke-width="3.4" d="M452.331 32.35H305.828v166.92h146.503V32.35z"/>
  <path stroke="#fff" stroke-opacity=".36" stroke-width="3.4" d="M439.012 47.524H319.146v136.571h119.866V47.524z"/>
  <path stroke="#fff" stroke-opacity=".36" stroke-width="3.4" d="M425.694 62.699h-93.23V168.92h93.23V62.699z"/>
  <path stroke="#fff" stroke-opacity=".36" stroke-width="3.4" d="M412.375 77.873h-66.592v75.873h66.592V77.873z"/>
  <path stroke="#fff" stroke-opacity=".36" stroke-width="3.4" d="M399.057 93.047h-39.956v45.524h39.956V93.047z"/>
  <path stroke="#fff" stroke-opacity=".36" stroke-width="3.4" d="M385.738 108.222H372.42v15.175h13.318v-15.175zM372.42 244.794h-93.229v106.222h93.229V244.794z"/>
  <path stroke="#fff" stroke-opacity=".36" stroke-width="3.4" d="M359.101 259.968h-66.592v75.873h66.592v-75.873z"/>
  <path stroke="#fff" stroke-opacity=".36" stroke-width="3.4" d="M345.783 275.143h-39.955v45.524h39.955v-45.524z"/>
  <path stroke="#fff" stroke-opacity=".36" stroke-width="3.4" d="M332.464 290.317h-13.318v15.175h13.318v-15.175zM159.324 487.587H-40.452v227.619h199.776V487.587z"/>
  <path stroke="#fff" stroke-opacity=".36" stroke-width="3.4" d="M146.006 502.762h-173.14v197.269h173.14V502.762z"/>
  <path stroke="#fff" stroke-opacity=".36" stroke-width="3.4" d="M132.688 517.936H-13.815v166.921h146.503V517.936z"/>
  <path stroke="#fff" stroke-opacity=".36" stroke-width="3.4" d="M119.369 533.111H-.497v136.571H119.37V533.111z"/>
  <path stroke="#fff" stroke-opacity=".36" stroke-width="3.4" d="M106.051 548.286h-93.23v106.222h93.23V548.286z"/>
  <path stroke="#fff" stroke-opacity=".36" stroke-width="3.4" d="M92.732 563.46H26.14v75.874h66.592V563.46z"/>
  <path stroke="#fff" stroke-opacity=".36" stroke-width="3.4" d="M79.414 578.635H39.458v45.524h39.956v-45.524z"/>
  <path stroke="#fff" stroke-opacity=".36" stroke-width="3.4" d="M66.095 593.809H52.777v15.175h13.318v-15.175zM692.063 487.587H492.286v227.619h199.777V487.587zM265.872 730.381H66.095V958h199.777V730.381zM372.42 366.19H172.643v227.619H372.42V366.19z"/>
  <path stroke="#fff" stroke-opacity=".36" stroke-width="3.4" d="M359.101 381.365h-173.14v197.27h173.14v-197.27z"/>
  <path stroke="#fff" stroke-opacity=".36" stroke-width="3.4" d="M345.783 396.54H199.28v166.92h146.503V396.54z"/>
  <path stroke="#fff" stroke-opacity=".36" stroke-width="3.4" d="M332.464 411.714H212.598v136.572h119.866V411.714z"/>
  <path stroke="#fff" stroke-opacity=".36" stroke-width="3.4" d="M319.146 426.889h-93.229v106.222h93.229V426.889z"/>
  <path stroke="#fff" stroke-opacity=".36" stroke-width="3.4" d="M305.828 442.064h-66.593v75.872h66.593v-75.872z"/>
  <path stroke="#fff" stroke-opacity=".36" stroke-width="3.4" d="M292.509 457.238h-39.955v45.524h39.955v-45.524z"/>
  <path stroke="#fff" stroke-opacity=".36" stroke-width="3.4" d="M279.191 472.413h-13.319v15.174h13.319v-15.174zM265.872 608.984h-93.229v106.222h93.229V608.984z"/>
  <path stroke="#fff" stroke-opacity=".36" stroke-width="3.4" d="M252.554 624.158h-66.593v75.873h66.593v-75.873z"/>
  <path stroke="#fff" stroke-opacity=".36" stroke-width="3.4" d="M239.235 639.333H199.28v45.524h39.955v-45.524z"/>
  <path stroke="#fff" stroke-opacity=".36" stroke-width="3.4" d="M225.917 654.508h-13.319v15.175h13.319v-15.175zM478.968 608.984H279.191v227.619h199.777V608.984z"/>
  <path stroke="#fff" stroke-opacity=".36" stroke-width="3.4" d="M465.649 624.158h-173.14v197.27h173.14v-197.27z"/>
  <path stroke="#fff" stroke-opacity=".36" stroke-width="3.4" d="M452.331 639.333H305.828v166.921h146.503V639.333z"/>
  <path stroke="#fff" stroke-opacity=".36" stroke-width="3.4" d="M439.012 654.508H319.146v136.571h119.866V654.508z"/>
  <path stroke="#fff" stroke-opacity=".36" stroke-width="3.4" d="M425.694 669.683h-93.23v106.222h93.23V669.683z"/>
  <path stroke="#fff" stroke-opacity=".36" stroke-width="3.4" d="M412.375 684.857h-66.592v75.873h66.592v-75.873z"/>
  <path stroke="#fff" stroke-opacity=".36" stroke-width="3.4" d="M399.057 700.032h-39.956v45.524h39.956v-45.524z"/>
  <path stroke="#fff" stroke-opacity=".36" stroke-width="3.4" d="M385.738 715.206H372.42v15.175h13.318v-15.175zM585.515 244.794H385.738v227.618h199.777V244.794z"/>
  <path stroke="#fff" stroke-opacity=".36" stroke-width="3.4" d="M572.197 259.968h-173.14v197.27h173.14v-197.27z"/>
  <path stroke="#fff" stroke-opacity=".36" stroke-width="3.4" d="M558.878 275.143H412.375v166.92h146.503v-166.92z"/>
  <path stroke="#fff" stroke-opacity=".36" stroke-width="3.4" d="M545.56 290.317H425.694v136.572H545.56V290.317z"/>
  <path stroke="#fff" stroke-opacity=".36" stroke-width="3.4" d="M532.241 305.492h-93.229v106.222h93.229V305.492z"/>
  <path stroke="#fff" stroke-opacity=".36" stroke-width="3.4" d="M518.923 320.666h-66.592v75.874h66.592v-75.874z"/>
  <path stroke="#fff" stroke-opacity=".36" stroke-width="3.4" d="M505.604 335.841h-39.955v45.524h39.955v-45.524z"/>
  <path stroke="#fff" stroke-opacity=".36" stroke-width="3.4" d="M492.286 351.016h-13.319v15.174h13.319v-15.174zM478.967 487.587h-93.229v106.222h93.229V487.587z"/>
  <path stroke="#fff" stroke-opacity=".36" stroke-width="3.4" d="M465.649 502.762h-66.592v75.873h66.592v-75.873z"/>
  <path stroke="#fff" stroke-opacity=".36" stroke-width="3.4" d="M452.33 517.936h-39.955v45.524h39.955v-45.524z"/>
  <path stroke="#fff" stroke-opacity=".36" stroke-width="3.4" d="M439.012 533.111h-13.318v15.175h13.318v-15.175zM585.515 730.381h-93.229v106.222h93.229V730.381zM585.515 123.397h-93.229v106.222h93.229V123.397zM52.777 730.381h-93.23v106.222h93.23V730.381zM1433.23 365.325H1340v106.222h93.23V365.325z"/>
  <path stroke="#fff" stroke-opacity=".36" stroke-width="3.4" d="M1419.91 380.5h-66.59v75.873h66.59V380.5z"/>
  <path stroke="#fff" stroke-opacity=".36" stroke-width="3.4" d="M1406.59 395.675h-39.95v45.524h39.95v-45.524z"/>
  <path stroke="#fff" stroke-opacity=".36" stroke-width="3.4" d="M1393.27 410.849h-13.31v15.175h13.31v-15.175zM1434.23 244.974H1341v106.222h93.23V244.974z"/>
  <path stroke="#fff" stroke-opacity=".36" stroke-width="3.4" d="M1420.91 260.148h-66.59v75.873h66.59v-75.873z"/>
  <path stroke="#fff" stroke-opacity=".36" stroke-width="3.4" d="M1407.59 275.323h-39.95v45.524h39.95v-45.524z"/>
  <path stroke="#fff" stroke-opacity=".36" stroke-width="3.4" d="M1394.27 290.497h-13.31v15.175h13.31v-15.175z"/>
</svg>
