<svg width="96" height="106" viewBox="0 0 96 106" fill="none" xmlns="http://www.w3.org/2000/svg">
<path d="M50.24 63.1501C48.88 64.3339 48 66.2192 48 68.2799V92.3946H76C80.4 92.3946 84 88.4486 84 83.6256V57.4064C80.24 55.9595 76.2 55.1265 72 55.1265C63.88 55.1265 56.28 58.1956 50.24 63.1501Z" fill="#776885"/>
<path d="M72 48.5498C83.0457 48.5498 92 38.7347 92 26.6273C92 14.5199 83.0457 4.7049 72 4.7049C60.9543 4.7049 52 14.5199 52 26.6273C52 38.7347 60.9543 48.5498 72 48.5498Z" fill="#776885"/>
<path d="M46 26.6273C46 21.8921 47.08 17.4199 48.96 13.4739H20C15.6 13.4739 12 17.4199 12 22.2428V83.6256C12 86.0371 12.92 88.2294 14.36 89.8078L53.64 46.7521C48.92 41.6223 46 34.5194 46 26.6273Z" fill="#776885"/>
</svg>
